<svg xmlns="http://www.w3.org/2000/svg" viewBox="0 0 22.77678 13.98491">
  <g id="bb49423d-3b07-4883-abe2-71d8c23a93cb" data-name="Layer 2">
    <g id="ae5be627-e84e-4fc6-ac99-0eda1821a055" data-name="Layer 1">
      <line x1="0.0497" y1="6.99254" x2="22.72713" y2="6.99254" fill="none" stroke="param(fill) #000000" stroke-miterlimit="22.92558" stroke-width="param(outline-width) 0.35"/>
      <polygon points="20.108 0.67 21.124 2.302 22.139 3.933 20.108 3.933 18.077 3.933 19.092 2.302 20.108 0.67" fill="none" stroke="param(fill) #000000" stroke-miterlimit="22.92558" stroke-width="0.7087"/>
      <polygon points="8.38 0.67 9.396 2.302 10.411 3.933 8.38 3.933 6.349 3.933 7.365 2.302 8.38 0.67" fill="none" stroke="param(fill) #000000" stroke-miterlimit="22.92558" stroke-width="0.7087"/>
      <polygon points="2.669 3.933 3.684 2.302 4.7 0.67 2.669 0.67 0.638 0.67 1.653 2.302 2.669 3.933" fill="none" stroke="param(fill) #000000" stroke-miterlimit="22.92558" stroke-width="0.7087"/>
      <polygon points="14.244 3.933 15.26 2.302 16.275 0.67 14.244 0.67 12.213 0.67 13.228 2.302 14.244 3.933" fill="none" stroke="param(fill) #000000" stroke-miterlimit="22.92558" stroke-width="0.7087"/>
      <polygon points="20.108 13.314 21.124 11.683 22.139 10.052 20.108 10.052 18.077 10.052 19.092 11.683 20.108 13.314" fill="none" stroke="param(fill) #000000" stroke-miterlimit="22.92558" stroke-width="0.7087"/>
      <polygon points="8.38 13.314 9.396 11.683 10.411 10.052 8.38 10.052 6.349 10.052 7.365 11.683 8.38 13.314" fill="none" stroke="param(fill) #000000" stroke-miterlimit="22.92558" stroke-width="0.7087"/>
      <polygon points="2.669 10.052 3.684 11.683 4.7 13.314 2.669 13.314 0.638 13.314 1.653 11.683 2.669 10.052" fill="none" stroke="param(fill) #000000" stroke-miterlimit="22.92558" stroke-width="0.7087"/>
      <polygon points="14.244 10.052 15.26 11.683 16.275 13.314 14.244 13.314 12.213 13.314 13.228 11.683 14.244 10.052" fill="none" stroke="param(fill) #000000" stroke-miterlimit="22.92558" stroke-width="0.7087"/>
    </g>
  </g>
</svg>
